<?xml version="1.0" encoding="UTF-8"?>
<svg width="322px" height="92px" viewBox="0 0 322 92" version="1.1" xmlns="http://www.w3.org/2000/svg" xmlns:xlink="http://www.w3.org/1999/xlink">
    <!-- Generator: Sketch 60.1 (88133) - https://sketch.com -->
    <title>logo</title>
    <desc>Created with Sketch.</desc>
    <g id="logo" stroke="none" stroke-width="1" fill="none" fill-rule="evenodd">
        <path d="M70.9800657,32.3763417 L65.286747,32.3763417 C64.3959693,32.3763417 63.6744797,33.0978313 63.6744797,33.988609 L63.6744797,51.2197152 C63.7278861,63.9294195 53.6078861,74.3497043 40.9012048,74.6681271 C28.1028258,74.8857831 17.552552,64.6861774 17.3348959,51.8877985 C17.3338883,51.7940854 17.3317594,51.6983571 17.3317594,51.6026287 L17.3317594,48.3680175 C17.3268346,48.1624535 17.4900767,47.9911501 17.6966484,47.9871194 C17.8256298,47.9840964 17.9465498,48.0485871 18.0170865,48.1564074 C19.1759036,49.9601314 21.4431544,51.6429354 26.0784228,51.6429354 L53.0032859,51.6429354 C56.1885214,51.6489814 58.7762103,49.0743921 58.7872946,45.8891566 L58.7872946,24.728149 C58.7872946,18.3798467 67.6950712,18.6821468 67.6547645,24.5165389 C67.6769332,25.7942607 68.7249069,26.8150274 70.0026287,26.803943 L71.0102957,26.803943 C75.6959474,26.7636364 76.0083242,32.3763417 70.9800657,32.3763417 M46,0 C20.5946988,0 0,20.5946988 0,46 C0,71.4042935 20.5946988,92 46,92 C71.4053012,92 92,71.4042935 92,46 C92,20.5946988 71.4053012,0 46,0" id="Fill-1" fill="#105CFB"></path>
        <path d="M230.5897,13.25 L235.9807,14.08 C235.3207,16 234.5997,18.08 233.9807,19.78 L245.4907,19.78 L245.4907,22 C245.0307,35.41 244.5707,40.43 243.2597,42.08 C242.4637,43.254 241.1487,43.969 239.7307,44 C237.7607,44.163 235.7827,44.186 233.8097,44.07 C233.7287,42.47 233.3267,40.902 232.6297,39.46 C234.7997,39.66 236.6297,39.66 237.4297,39.66 C238.2307,39.66 238.7407,39.6 239.0707,38.91 C239.7997,37.91 240.1907,34.3 240.5197,24.61 L227.9997,24.61 L227.9997,47.43 L247.3607,47.43 L247.360131,47.6318953 C247.357996,48.1047922 247.347858,49.2852632 247.2997,49.83 C246.7007,66.33 246.1107,72.32 244.4697,74.45 C243.4417,75.774 241.8667,76.559 240.1907,76.58 C237.7387,76.787 235.2757,76.811 232.8207,76.65 C232.6837,74.813 232.1477,73.028 231.2497,71.42 C234.0097,71.7 236.6397,71.7 237.7597,71.7 C238.8797,71.7 239.3397,71.63 239.8607,70.94 C240.8607,69.77 241.3797,64.82 241.8607,52.24 L222.7597,52.24 L222.7597,19.78 L229.2097,19.78 C229.7307,17.65 230.2097,15.11 230.5897,13.25 Z M151.77,15.9001 L151.77,68.3801 C151.77,72.5591 150.77,74.4501 148.12,75.5301 C145.47,76.6101 141.12,76.7401 134.6,76.7401 C134.066,74.3921 133.222,72.1251 132.09,70.0001 C136.83,70.2001 141.63,70.2001 143.09,70.1301 C144.55,70.0591 144.98,69.6601 144.98,68.3801 L144.98,15.9001 L151.77,15.9001 Z M273.56,39.79 L273.56,64 C274.79,64.76 276.1,65.79 278.22,67.11 C282.67,69.8 288.56,70.28 296.03,70.28 C304.52,70.232 313,69.748 321.44,68.83 C320.58,70.812 320.004,72.906 319.73,75.05 C314.79,75.39 303.15,75.74 295.82,75.74 C287.47,75.74 281.92,74.98 277.12,72.15 C274.38,70.56 272.12,68.35 270.62,68.35 C268.42,68.35 265.07,72.28 261.85,76.7 L257.94,71.39 C261.16,67.93 264.52,65.1 267.46,63.86 L267.46,45.73 L258.29,45.73 L258.29,39.79 L273.56,39.79 Z M211.0097,14.83 C210.9407,21.09 211.0097,27.14 211.1397,32.71 L220.5397,32.71 L220.5397,38.28 L211.2697,38.28 C211.4697,43.16 211.7297,47.63 211.9907,51.55 C213.5637,48.137 214.8767,44.61 215.9197,41 L220.4597,43.85 C218.6107,49.705 216.1087,55.334 212.9997,60.63 C213.7897,66.27 214.9997,69.63 216.4807,69.7 C217.4007,69.7 217.9997,66.61 218.3207,61.59 C219.3487,62.87 220.5707,63.983 221.9407,64.89 C220.6907,73.97 218.3207,76.3 216.3497,76.24 C213.0597,76.1 210.7597,72.45 209.3497,66.13 C207.6527,68.316 205.8077,70.384 203.8297,72.32 C202.8227,71.025 201.6497,69.868 200.3397,68.88 L200.3397,70.19 C200.3397,73 199.8207,74.59 198.2407,75.48 C196.6597,76.37 194.2407,76.58 190.7997,76.58 C190.4987,74.697 189.9927,72.853 189.2897,71.08 C191.4007,71.22 193.4997,71.22 194.1597,71.22 C194.8207,71.22 195.0797,70.94 195.0797,70.22 L195.0797,55.88 C193.2407,56.71 191.4007,57.53 189.7497,58.29 L187.8497,52.38 C189.8497,51.69 192.3797,50.79 195.0797,49.7 L195.0797,38.28 L188.7007,38.28 L188.7007,32.71 L195.0797,32.71 L195.0797,23.57 C193.4407,24.05 191.8607,24.46 190.2807,24.8 C189.9207,23.186 189.3207,21.635 188.4997,20.2 C193.1697,18.82 198.2407,16.83 201.2007,14.83 L205.7997,19.44 C204.0457,20.365 202.2197,21.147 200.3397,21.78 L200.3397,32.71 L206.3397,32.71 C206.1397,27.14 206.0797,21.09 206.0097,14.83 L211.0097,14.83 Z M206.4197,38.3 L200.2997,38.3 L200.2997,47.65 L204.2997,46 L205.2997,51.23 L200.2997,53.5 L200.3297,68.47 C203.2897,65.663 205.8687,62.479 207.9997,59 C207.2097,53.29 206.7497,46.28 206.4197,38.3 Z M314.11,15.9 L317.95,18.9 C313.995,22.709 309.573,26.002 304.79,28.7 C306.305,29.365 307.771,30.133 309.18,31 L318,31 L318,60.51 C318,63.41 317.46,64.87 315.54,65.69 C313.62,66.51 310.67,66.69 306.36,66.69 C306.058,64.886 305.481,63.14 304.65,61.51 C307.45,61.65 310.13,61.58 310.88,61.58 C311.63,61.58 311.98,61.3 311.98,60.48 L311.98,55.54 L301.78,55.54 L301.78,66.18 L296,66.18 L296,55.54 L286.13,55.54 L286.16,66.39 L280.16,66.39 L280.16,31 L297.42,31 C293.65,29.21 289.33,27.34 285.7,26 L289.81,22.48 C292.69,23.48 296.05,24.76 299.33,26.14 C302.048,24.735 304.638,23.096 307.07,21.24 L280.48,21.24 L280.48,16.24 L312.88,16.24 L314.11,15.9 Z M167,30.6001 C172.68,39.9101 178.23,52.0501 179.92,60.1501 L173.29,63.0501 C171.87,55.1601 166.6,42.6801 161.05,33.0501 L167,30.6001 Z M127.41,31.3501 L134.53,32.6301 C132.16,42.6301 128.24,55.0191 122.15,62.6301 C120.333,61.2741 118.414,60.0611 116.41,59.0001 C122.22,52.0001 125.87,40.3201 127.41,31.3501 Z M240.3207,57.6 L240.3207,62.55 L220.2597,62.55 L220.2597,57.6 L240.3207,57.6 Z M296,45.53 L286.13,45.53 L286.16,50.65 L296,50.65 L296,45.53 Z M312,45.529 L301.78,45.529 L301.78,50.65 L312,50.65 L312,45.529 Z M312,35.77 L301.78,35.77 L301.78,40.77 L312,40.77 L312,35.77 Z M296,35.77 L286.13,35.77 L286.16,40.77 L296,40.77 L296,35.77 Z M232.4297,26.73 C234.7267,28.957 236.8587,31.346 238.8097,33.88 L234.9997,37.18 C233.1147,34.517 231.0707,31.969 228.8797,29.55 L232.4297,26.73 Z M263.9,16.39 C267.9,19.7 273.29,24.54 275.75,27.65 L271.23,32 C268.84,28.82 263.56,23.78 259.52,20.19 L263.9,16.39 Z M215.9997,17.31 C217.7347,21.088 219.0137,25.06 219.8097,29.14 L215.4597,30.72 C214.7027,26.543 213.4897,22.462 211.8397,18.55 L215.9997,17.31 Z" id="形状结合" fill="#28282A"></path>
    </g>
</svg>